<svg width="16" height="12" viewBox="0 0 16 12" fill="none" xmlns="http://www.w3.org/2000/svg">
<path d="M11.375 6C12.41 6 13.2425 5.16 13.2425 4.125C13.2425 3.09 12.41 2.25 11.375 2.25C10.34 2.25 9.5 3.09 9.5 4.125C9.5 5.16 10.34 6 11.375 6ZM5.75 5.25C6.995 5.25 7.9925 4.245 7.9925 3C7.9925 1.755 6.995 0.75 5.75 0.75C4.505 0.75 3.5 1.755 3.5 3C3.5 4.245 4.505 5.25 5.75 5.25ZM11.375 7.5C10.0025 7.5 7.25 8.19 7.25 9.5625V11.25H15.5V9.5625C15.5 8.19 12.7475 7.5 11.375 7.5ZM5.75 6.75C4.0025 6.75 0.5 7.6275 0.5 9.375V11.25H5.75V9.5625C5.75 8.925 5.9975 7.8075 7.5275 6.96C6.875 6.825 6.245 6.75 5.75 6.75Z" fill="#8E8E8E"/>
</svg>
