<svg width="12" height="12" viewBox="0 0 12 12" fill="none" xmlns="http://www.w3.org/2000/svg">
<path fill-rule="evenodd" clip-rule="evenodd" d="M0 0H4V1.33331L4.00049 2.66663L4 3.99994H0V2.66663V1.33331V0ZM1.3335 2.66663H2.66699V1.33331H1.3335V2.66663ZM5.3335 1.33331H6.66699V2.66663V3.99994H5.3335V2.66663V1.33331ZM0 5.33331H1.3335V6.66663H0V5.33331ZM5.3335 5.33331H4V6.66663H5.3335V8H6.66699V6.66663V5.33331H5.3335ZM8 5.33331H9.3335V6.66663H8V5.33331ZM10.6665 6.66669L9.3335 6.66663L9.33301 8H8V9.33331L6.6665 9.33337H5.3335V10.6667V12H6.66699L6.6665 10.6667H8H9.33301V12H10.6665V10.6667H12V9.33331V8H10.6665V6.66669ZM10.6665 6.66669V5.33331H12V6.66663L10.6665 6.66669ZM10.6665 8V9.33331V10.6667H9.33301L9.3335 9.33331L9.33301 8H10.6665ZM8 0H12V1.33331V2.66663V3.99994H8V2.66663V1.33331V0ZM10.6665 2.66663V1.33331H9.3335V2.66663H10.6665ZM0 8H4V9.33331L4.00049 10.6667L4 12H0V10.6667V9.33331V8ZM1.3335 10.6667H2.66699V9.33337H1.3335V10.6667Z" fill="white"/>
</svg>
