<svg width="54" height="30" viewBox="0 0 54 30" fill="none" xmlns="http://www.w3.org/2000/svg">
<path fill-rule="evenodd" clip-rule="evenodd" d="M0 13.273C0 10.8666 1.4145 9.5072 4.22515 9.5072C6.30081 9.5072 7.66017 10.4625 8.15616 11.9138C8.30311 12.373 8.19295 12.575 7.7521 12.7404L6.94375 12.9976C6.50289 13.1629 6.30081 13.0526 6.13552 12.6118C5.82327 11.7851 5.14353 11.381 4.13321 11.381C2.79219 11.381 2.13091 11.9872 2.13091 13.1812V15.9001C2.13091 17.0572 2.82899 17.7002 4.13321 17.7002C5.14353 17.7002 5.82327 17.2776 6.13552 16.4327C6.30081 15.9918 6.50289 15.9183 6.94375 16.0652L7.77044 16.3041C8.19296 16.4694 8.32157 16.7449 8.15616 17.1307C7.51321 18.7657 6.15386 19.5738 4.05974 19.5738C1.34102 19.5738 0 18.2145 0 15.8081V13.273Z" fill="white"/>
<path fill-rule="evenodd" clip-rule="evenodd" d="M12.4733 9.78274C12.8958 9.78274 13.0427 9.91135 13.0427 10.3339V18.7289C13.0427 19.1513 12.8958 19.2983 12.4733 19.2983H11.4629C11.0404 19.2983 10.9118 19.1513 10.9118 18.7289V10.3339C10.9118 9.91135 11.0404 9.78274 11.4629 9.78274H12.4733ZM12.0324 6.21899C12.8958 6.21899 13.1529 6.49456 13.1529 7.32125V7.48654C13.1529 8.34991 12.8958 8.60713 12.0324 8.60713H11.9039C11.0772 8.60713 10.7832 8.34991 10.7832 7.48654V7.32125C10.7832 6.49456 11.0404 6.21899 11.9039 6.21899H12.0324Z" fill="white"/>
<path fill-rule="evenodd" clip-rule="evenodd" d="M26.0119 18.7289C26.0119 19.1512 25.8649 19.2982 25.4426 19.2982H24.4504C24.0096 19.2982 23.8811 19.1512 23.8811 18.7289V6.78504C23.8811 6.36253 24.0096 6.21558 24.4504 6.21558H25.4426C25.8649 6.21558 26.0119 6.36253 26.0119 6.78504V18.7289Z" fill="#343534"/>
<path fill-rule="evenodd" clip-rule="evenodd" d="M31.0009 9.78274C31.4232 9.78274 31.5703 9.91135 31.5703 10.3339V18.7289C31.5703 19.1513 31.4232 19.2983 31.0009 19.2983H29.9904C29.568 19.2983 29.4394 19.1513 29.4394 18.7289V10.3339C29.4394 9.91135 29.568 9.78274 29.9904 9.78274H31.0009ZM30.5599 6.21899C31.4232 6.21899 31.6805 6.49456 31.6805 7.32125V7.48654C31.6805 8.34991 31.4232 8.60713 30.5599 8.60713H30.4314C29.6048 8.60713 29.3108 8.34991 29.3108 7.48654V7.32125C29.3108 6.49456 29.568 6.21899 30.4314 6.21899H30.5599Z" fill="#343534"/>
<path fill-rule="evenodd" clip-rule="evenodd" d="M51.7588 17.3511C51.0055 17.5348 50.3626 17.6267 49.8666 17.6267C48.5624 17.6267 47.8643 16.9839 47.8643 15.8265V13.4384C47.8643 12.1158 48.5807 11.4545 50.0319 11.4545C50.583 11.4545 51.0974 11.528 51.5565 11.6566C51.6853 11.7117 51.7588 11.7851 51.7588 11.8954V17.3511ZM53.2099 10.0768C52.8671 9.91679 52.473 9.79214 52.0317 9.70032C51.7775 9.64566 51.7686 9.77296 51.7686 9.83265V10.9452C51.6965 9.44238 49.6694 9.49895 49.0502 9.55157C46.8353 9.79549 45.7334 11.066 45.7334 13.365V15.8815C45.7334 18.2513 46.9825 19.5739 49.5542 19.5739C50.1605 19.5739 50.8954 19.4637 51.7588 19.2249V23.0537C51.7588 23.4762 51.8872 23.6232 52.3098 23.6232H53.3201C53.7427 23.6232 53.8895 23.4762 53.8895 23.0537V11.087C53.8895 10.4992 53.7977 10.3523 53.2099 10.0768Z" fill="#343534"/>
<path fill-rule="evenodd" clip-rule="evenodd" d="M39.5622 9.5236C38.9072 9.49543 36.9482 9.53522 36.8775 11.0124V9.89997C36.8775 9.84423 36.8683 9.73048 36.66 9.76009C36.2413 9.85598 35.843 9.97896 35.4643 10.1318C34.8765 10.3704 34.748 10.591 34.748 11.1788V18.7288C34.748 19.1513 34.895 19.2981 35.3175 19.2981H36.3278C36.7503 19.2981 36.8788 19.1513 36.8788 18.7288V11.8769C36.8788 11.785 36.9156 11.7299 37.0076 11.6931C37.5954 11.5278 38.1832 11.4543 38.771 11.4543C40.112 11.4543 40.7733 12.0605 40.7733 13.2546V18.7288C40.7733 19.1513 40.9019 19.2981 41.3244 19.2981H42.3347C42.7571 19.2981 42.9042 19.1513 42.9042 18.7288V13.1994C42.9042 10.982 41.8101 9.68146 39.5622 9.5236Z" fill="#343534"/>
<path fill-rule="evenodd" clip-rule="evenodd" d="M20.9417 9.5072H20.4167C19.5802 9.56546 18.406 9.85025 18.3516 10.9877V9.87518C18.3516 9.81453 18.3438 9.68292 18.0768 9.74477C18.0728 9.74561 18.0704 9.74477 18.0667 9.74537C17.6558 9.82855 17.2791 9.93271 16.9371 10.0583C16.3493 10.2971 16.2207 10.5175 16.2207 11.1054V18.7289C16.2207 19.1513 16.3677 19.2983 16.7902 19.2983H17.8005C18.223 19.2983 18.3516 19.1513 18.3516 18.7289V12.0703C18.3516 11.9418 18.4597 11.7321 18.667 11.637C18.8742 11.5419 19.6007 11.4545 20.2803 11.4545H20.9417C21.3642 11.4545 21.5112 11.3075 21.5112 10.885V10.0767C21.5112 9.63582 21.3642 9.5072 20.9417 9.5072Z" fill="white"/>
<path fill-rule="evenodd" clip-rule="evenodd" d="M26.0118 21.7531C26.0118 21.5663 25.859 21.4135 25.6721 21.4135H24.2224C24.0355 21.4135 23.8826 21.5663 23.8826 21.7531V27.5309V28.2105V29.6602C23.8826 29.847 24.0355 30 24.2224 30H25.6721H26.3516H34.4083C34.5951 30 34.7481 29.847 34.7481 29.6602V28.2105C34.7481 28.0235 34.5951 27.8707 34.4083 27.8707H26.3516C26.1647 27.8707 26.0118 27.7179 26.0118 27.5309V21.7531Z" fill="white"/>
<path fill-rule="evenodd" clip-rule="evenodd" d="M24.2223 0C24.0354 0 23.8826 0.152825 23.8826 0.33969V1.78943V2.46905V3.76416C23.8826 3.95102 24.0354 4.10397 24.2223 4.10397H25.672C25.8589 4.10397 26.0117 3.95102 26.0117 3.76416V2.46905C26.0117 2.28218 26.1646 2.12924 26.3515 2.12924H34.4082C34.595 2.12924 34.748 1.97629 34.748 1.78943V0.33969C34.748 0.152825 34.595 0 34.4082 0H26.3515H25.672H24.2223Z" fill="white"/>
<path fill-rule="evenodd" clip-rule="evenodd" d="M51.7533 27.5309C51.7533 27.7179 51.6004 27.8708 51.4134 27.8708H43.244C43.0571 27.8708 42.9043 28.0236 42.9043 28.2106V29.6603C42.9043 29.847 43.0571 30.0001 43.244 30.0001H51.4134H52.0931H53.5428C53.7295 30.0001 53.8825 29.847 53.8825 29.6603V28.2106V27.5309V26.078C53.8825 25.8911 53.7295 25.7383 53.5428 25.7383H52.0931C51.9061 25.7383 51.7533 25.8911 51.7533 26.078V27.5309Z" fill="white"/>
<path fill-rule="evenodd" clip-rule="evenodd" d="M52.0931 0H51.4134H43.244C43.0571 0 42.9043 0.152824 42.9043 0.33969V1.78943C42.9043 1.97629 43.0571 2.12924 43.244 2.12924H51.4134C51.6004 2.12924 51.7533 2.28218 51.7533 2.46905V7.22674C51.7533 7.41361 51.9061 7.56643 52.0931 7.56643H53.5428C53.7295 7.56643 53.8825 7.41361 53.8825 7.22674V2.46905V1.78943V0.33969C53.8825 0.152824 53.7295 0 53.5428 0H52.0931Z" fill="white"/>
</svg>
