<svg width="72" height="40" viewBox="0 0 72 40" fill="none" xmlns="http://www.w3.org/2000/svg">
<g opacity="0.4">
<path fill-rule="evenodd" clip-rule="evenodd" d="M0 17.6974C0 14.4887 1.88599 12.6763 5.63353 12.6763C8.40107 12.6763 10.2136 13.95 10.8749 15.8851C11.0708 16.4973 10.9239 16.7666 10.3361 16.9872L9.25833 17.3301C8.67053 17.5505 8.40108 17.4035 8.18069 16.8157C7.76437 15.7134 6.85805 15.1747 5.51095 15.1747C3.72293 15.1747 2.84122 15.9829 2.84122 17.575V21.2001C2.84122 22.743 3.77199 23.6002 5.51095 23.6002C6.85805 23.6002 7.76437 23.0369 8.18069 21.9103C8.40108 21.3223 8.67053 21.2244 9.25833 21.4203L10.3606 21.7388C10.9239 21.9592 11.0954 22.3265 10.8749 22.8409C10.0176 25.021 8.20514 26.0985 5.41299 26.0985C1.78803 26.0985 0 24.286 0 21.0775V17.6974Z" fill="#343534"/>
<path fill-rule="evenodd" clip-rule="evenodd" d="M16.6311 13.0437C17.1945 13.0437 17.3904 13.2151 17.3904 13.7785V24.9719C17.3904 25.5351 17.1945 25.731 16.6311 25.731H15.284C14.7207 25.731 14.5492 25.5351 14.5492 24.9719V13.7785C14.5492 13.2151 14.7207 13.0437 15.284 13.0437H16.6311ZM16.0433 8.29199C17.1945 8.29199 17.5373 8.65941 17.5373 9.76166V9.98205C17.5373 11.1332 17.1945 11.4762 16.0433 11.4762H15.872C14.7697 11.4762 14.3777 11.1332 14.3777 9.98205V9.76166C14.3777 8.65941 14.7207 8.29199 15.872 8.29199H16.0433Z" fill="#343534"/>
<path fill-rule="evenodd" clip-rule="evenodd" d="M34.6824 24.9717C34.6824 25.5349 34.4864 25.7309 33.9232 25.7309H32.6004C32.0126 25.7309 31.8413 25.5349 31.8413 24.9717V9.04664C31.8413 8.48329 32.0126 8.28735 32.6004 8.28735H33.9232C34.4864 8.28735 34.6824 8.48329 34.6824 9.04664V24.9717Z" fill="#343534"/>
<path fill-rule="evenodd" clip-rule="evenodd" d="M41.3342 13.0437C41.8974 13.0437 42.0935 13.2151 42.0935 13.7785V24.9719C42.0935 25.5351 41.8974 25.731 41.3342 25.731H39.987C39.4238 25.731 39.2523 25.5351 39.2523 24.9719V13.7785C39.2523 13.2151 39.4238 13.0437 39.987 13.0437H41.3342ZM40.7463 8.29199C41.8974 8.29199 42.2404 8.65941 42.2404 9.76166V9.98205C42.2404 11.1332 41.8974 11.4762 40.7463 11.4762H40.5749C39.4728 11.4762 39.0808 11.1332 39.0808 9.98205V9.76166C39.0808 8.65941 39.4238 8.29199 40.5749 8.29199H40.7463Z" fill="#343534"/>
<path fill-rule="evenodd" clip-rule="evenodd" d="M69.0116 23.1347C68.0073 23.3795 67.1501 23.5021 66.4887 23.5021C64.7498 23.5021 63.819 22.645 63.819 21.1018V17.9176C63.819 16.1542 64.7742 15.2725 66.7091 15.2725C67.444 15.2725 68.1297 15.3705 68.742 15.542C68.9136 15.6155 69.0116 15.7133 69.0116 15.8603V23.1347ZM70.9465 13.4356C70.4894 13.2222 69.9639 13.056 69.3755 12.9336C69.0365 12.8607 69.0247 13.0304 69.0247 13.11V14.5935C68.9286 12.5897 66.2258 12.6651 65.4002 12.7353C62.447 13.0605 60.9778 14.7546 60.9778 17.8198V21.1752C60.9778 24.3349 62.6432 26.0983 66.0722 26.0983C66.8806 26.0983 67.8604 25.9515 69.0116 25.6331V30.7381C69.0116 31.3015 69.1829 31.4974 69.7463 31.4974H71.0934C71.6569 31.4974 71.8526 31.3015 71.8526 30.7381V14.7825C71.8526 13.9988 71.7302 13.8028 70.9465 13.4356Z" fill="#343534"/>
<path fill-rule="evenodd" clip-rule="evenodd" d="M52.7497 12.6981C51.8763 12.6606 49.2644 12.7136 49.1701 14.6832V13.2C49.1701 13.1256 49.1578 12.974 48.88 13.0134C48.3218 13.1413 47.7907 13.3053 47.2859 13.509C46.5021 13.8272 46.3308 14.1213 46.3308 14.905V24.9717C46.3308 25.5351 46.5267 25.7309 47.0901 25.7309H48.4372C49.0005 25.7309 49.1719 25.5351 49.1719 24.9717V15.8358C49.1719 15.7134 49.2209 15.6399 49.3435 15.5908C50.1272 15.3704 50.911 15.2725 51.6947 15.2725C53.4828 15.2725 54.3645 16.0806 54.3645 17.6727V24.9717C54.3645 25.5351 54.5359 25.7309 55.0993 25.7309H56.4464C57.0096 25.7309 57.2057 25.5351 57.2057 24.9717V17.5992C57.2057 14.6426 55.7469 12.9086 52.7497 12.6981Z" fill="#343534"/>
<path fill-rule="evenodd" clip-rule="evenodd" d="M27.9224 12.6763H27.2224C26.107 12.7539 24.5415 13.1337 24.4689 14.6503V13.1669C24.4689 13.086 24.4585 12.9106 24.1024 12.993C24.0972 12.9941 24.094 12.993 24.089 12.9938C23.5412 13.1047 23.0389 13.2436 22.5829 13.4111C21.7992 13.7295 21.6277 14.0234 21.6277 14.8073V24.9719C21.6277 25.5351 21.8236 25.731 22.387 25.731H23.7341C24.2974 25.731 24.4689 25.5351 24.4689 24.9719V16.0938C24.4689 15.9225 24.6131 15.6428 24.8894 15.516C25.1657 15.3892 26.1344 15.2727 27.0405 15.2727H27.9224C28.4857 15.2727 28.6817 15.0767 28.6817 14.5134V13.4356C28.6817 12.8478 28.4857 12.6763 27.9224 12.6763Z" fill="#343534"/>
<path fill-rule="evenodd" clip-rule="evenodd" d="M34.6825 29.0042C34.6825 28.755 34.4787 28.5513 34.2296 28.5513H32.2966C32.0474 28.5513 31.8435 28.755 31.8435 29.0042V36.7078V37.614V39.547C31.8435 39.796 32.0474 40 32.2966 40H34.2296H35.1356H45.8778C46.1269 40 46.3309 39.796 46.3309 39.547V37.614C46.3309 37.3647 46.1269 37.1609 45.8778 37.1609H35.1356C34.8864 37.1609 34.6825 36.9571 34.6825 36.7078V29.0042Z" fill="#343534"/>
<path fill-rule="evenodd" clip-rule="evenodd" d="M32.2964 0C32.0473 0 31.8435 0.203766 31.8435 0.45292V2.3859V3.29206V5.01888C31.8435 5.26803 32.0473 5.47196 32.2964 5.47196H34.2294C34.4786 5.47196 34.6823 5.26803 34.6823 5.01888V3.29206C34.6823 3.04291 34.8863 2.83898 35.1354 2.83898H45.8776C46.1268 2.83898 46.3307 2.63505 46.3307 2.3859V0.45292C46.3307 0.203766 46.1268 0 45.8776 0H35.1354H34.2294H32.2964Z" fill="#343534"/>
<path fill-rule="evenodd" clip-rule="evenodd" d="M69.0042 36.7078C69.0042 36.9572 68.8004 37.1609 68.5511 37.1609H57.6585C57.4093 37.1609 57.2056 37.3647 57.2056 37.614V39.547C57.2056 39.796 57.4093 40.0001 57.6585 40.0001H68.5511H69.4573H71.3902C71.6392 40.0001 71.8432 39.796 71.8432 39.547V37.614V36.7078V34.7705C71.8432 34.5214 71.6392 34.3176 71.3902 34.3176H69.4573C69.2079 34.3176 69.0042 34.5214 69.0042 34.7705V36.7078Z" fill="#343534"/>
<path fill-rule="evenodd" clip-rule="evenodd" d="M69.4573 0H68.5511H57.6585C57.4093 0 57.2056 0.203766 57.2056 0.45292V2.3859C57.2056 2.63505 57.4093 2.83898 57.6585 2.83898H68.5511C68.8004 2.83898 69.0042 3.04291 69.0042 3.29206V9.63566C69.0042 9.88481 69.2079 10.0886 69.4573 10.0886H71.3902C71.6392 10.0886 71.8432 9.88481 71.8432 9.63566V3.29206V2.3859V0.45292C71.8432 0.203766 71.6392 0 71.3902 0H69.4573Z" fill="#343534"/>
</g>
</svg>
